<?xml version="1.0" encoding="UTF-8"?>
<!DOCTYPE svg PUBLIC "-//W3C//DTD SVG 1.1//EN" "http://www.w3.org/Graphics/SVG/1.1/DTD/svg11.dtd">
<svg xmlns="http://www.w3.org/2000/svg" version="1.1" viewBox="0 0 81 81" stroke="none">
	<rect width="100%" height="100%" fill="#ffffff"/>
	<path d="M20,20h7v1h-7z M29,20h1v1h-1z M32,20h4v1h-4z M37,20h3v1h-3z M41,20h1v6h-1z M43,20h2v1h-2z M48,20h2v1h-2z M51,20h2v1h-2z M54,20h7v1h-7z M20,21h1v6h-1z M26,21h1v6h-1z M32,21h1v1h-1z M35,21h1v1h-1z M37,21h1v2h-1z M42,21h1v1h-1z M44,21h2v1h-2z M47,21h1v1h-1z M50,21h1v1h-1z M52,21h1v1h-1z M54,21h1v6h-1z M60,21h1v6h-1z M22,22h3v3h-3z M28,22h1v6h-1z M30,22h2v1h-2z M33,22h2v1h-2z M38,22h1v1h-1z M40,22h1v2h-1z M56,22h3v3h-3z M29,23h1v1h-1z M31,23h1v3h-1z M34,23h1v2h-1z M39,23h1v2h-1z M44,23h6v1h-6z M51,23h2v1h-2z M30,24h1v1h-1z M33,24h1v2h-1z M35,24h2v1h-2z M38,24h1v1h-1z M43,24h3v1h-3z M49,24h1v1h-1z M51,24h1v1h-1z M35,25h1v1h-1z M40,25h1v8h-1z M44,25h4v1h-4z M52,25h1v3h-1z M21,26h5v1h-5z M30,26h1v1h-1z M32,26h1v1h-1z M34,26h1v1h-1z M36,26h1v1h-1z M38,26h1v1h-1z M42,26h1v3h-1z M44,26h1v3h-1z M46,26h1v1h-1z M48,26h1v2h-1z M50,26h1v2h-1z M55,26h5v1h-5z M29,27h1v3h-1z M33,27h1v1h-1z M41,27h1v1h-1z M20,28h1v3h-1z M22,28h4v2h-4z M26,28h1v1h-1z M30,28h1v1h-1z M32,28h1v2h-1z M35,28h1v1h-1z M37,28h1v1h-1z M45,28h3v1h-3z M49,28h1v1h-1z M54,28h5v1h-5z M27,29h2v1h-2z M31,29h1v2h-1z M39,29h1v1h-1z M43,29h1v1h-1z M50,29h3v1h-3z M54,29h1v1h-1z M56,29h1v3h-1z M58,29h3v1h-3z M21,30h1v1h-1z M24,30h1v3h-1z M26,30h2v1h-2z M30,30h1v1h-1z M33,30h2v1h-2z M36,30h3v1h-3z M42,30h1v1h-1z M47,30h1v2h-1z M49,30h2v1h-2z M52,30h1v2h-1z M55,30h1v2h-1z M23,31h1v1h-1z M25,31h1v1h-1z M28,31h1v3h-1z M29,31h1v1h-1z M33,31h1v1h-1z M39,31h1v2h-1z M41,31h1v1h-1z M43,31h1v1h-1z M46,31h1v1h-1z M48,31h1v3h-1z M50,31h2v1h-2z M57,31h1v2h-1z M60,31h1v1h-1z M20,32h1v4h-1z M26,32h2v1h-2z M30,32h3v1h-3z M34,32h1v1h-1z M37,32h1v1h-1z M45,32h1v3h-1z M49,32h1v1h-1z M51,32h1v2h-1z M53,32h1v1h-1z M58,32h1v2h-1z M21,33h3v1h-3z M25,33h1v2h-1z M31,33h2v1h-2z M38,33h1v1h-1z M42,33h2v1h-2z M46,33h1v4h-1z M50,33h1v2h-1z M52,33h1v1h-1z M54,33h1v1h-1z M56,33h1v3h-1z M60,33h1v1h-1z M23,34h2v2h-2z M26,34h2v1h-2z M30,34h1v1h-1z M32,34h1v2h-1z M34,34h1v2h-1z M36,34h1v1h-1z M40,34h1v1h-1z M42,34h1v1h-1z M47,34h1v3h-1z M49,34h1v1h-1z M53,34h1v1h-1z M59,34h1v1h-1z M27,35h1v3h-1z M28,35h1v1h-1z M33,35h1v1h-1z M35,35h1v4h-1z M41,35h1v1h-1z M43,35h2v1h-2z M51,35h2v1h-2z M54,35h1v1h-1z M57,35h1v2h-1z M22,36h1v1h-1z M25,36h2v1h-2z M37,36h2v1h-2z M42,36h1v1h-1z M45,36h1v3h-1z M48,36h2v1h-2z M53,36h1v1h-1z M55,36h1v2h-1z M58,36h2v1h-2z M20,37h1v5h-1z M28,37h1v1h-1z M31,37h3v2h-3z M39,37h2v1h-2z M43,37h1v1h-1z M48,37h1v1h-1z M51,37h2v1h-2z M54,37h1v1h-1z M56,37h1v3h-1z M59,37h2v1h-2z M21,38h3v2h-3z M24,38h1v1h-1z M26,38h1v1h-1z M29,38h1v1h-1z M38,38h1v1h-1z M40,38h1v2h-1z M42,38h1v1h-1z M46,38h2v3h-2z M49,38h2v1h-2z M58,38h1v1h-1z M32,39h2v1h-2z M36,39h1v1h-1z M43,39h2v1h-2z M51,39h2v1h-2z M21,40h2v1h-2z M25,40h2v1h-2z M28,40h3v2h-3z M31,40h1v1h-1z M38,40h2v1h-2z M41,40h2v1h-2z M45,40h1v1h-1z M49,40h1v3h-1z M53,40h1v1h-1z M57,40h2v1h-2z M60,40h1v2h-1z M22,41h2v1h-2z M35,41h1v3h-1z M39,41h1v1h-1z M43,41h2v1h-2z M48,41h1v1h-1z M51,41h1v1h-1z M54,41h1v1h-1z M56,41h1v3h-1z M59,41h1v1h-1z M21,42h2v1h-2z M25,42h3v1h-3z M29,42h1v3h-1z M31,42h2v1h-2z M34,42h1v1h-1z M37,42h2v1h-2z M40,42h3v1h-3z M44,42h4v1h-4z M52,42h2v1h-2z M55,42h1v2h-1z M57,42h1v2h-1z M21,43h1v1h-1z M23,43h2v3h-2z M25,43h1v1h-1z M28,43h1v2h-1z M30,43h1v1h-1z M36,43h1v1h-1z M38,43h1v1h-1z M41,43h3v1h-3z M46,43h1v3h-1z M53,43h2v1h-2z M60,43h1v1h-1z M22,44h1v3h-1z M26,44h2v1h-2z M33,44h2v2h-2z M37,44h1v1h-1z M40,44h1v1h-1z M42,44h4v1h-4z M47,44h1v1h-1z M49,44h1v1h-1z M58,44h2v1h-2z M20,45h1v8h-1z M21,45h1v1h-1z M38,45h2v1h-2z M41,45h1v3h-1z M43,45h1v1h-1z M48,45h1v2h-1z M50,45h2v1h-2z M53,45h2v1h-2z M56,45h1v3h-1z M57,45h1v1h-1z M59,45h2v1h-2z M23,46h1v1h-1z M25,46h2v1h-2z M28,46h1v4h-1z M32,46h2v1h-2z M35,46h2v1h-2z M38,46h1v1h-1z M40,46h1v1h-1z M44,46h2v1h-2z M47,46h1v3h-1z M49,46h1v1h-1z M52,46h1v4h-1z M53,46h1v1h-1z M21,47h1v1h-1z M25,47h1v1h-1z M30,47h2v2h-2z M33,47h2v1h-2z M36,47h1v4h-1z M39,47h1v1h-1z M43,47h1v3h-1z M50,47h2v3h-2z M54,47h2v1h-2z M57,47h1v3h-1z M59,47h2v1h-2z M23,48h1v1h-1z M26,48h2v1h-2z M29,48h1v1h-1z M34,48h2v1h-2z M37,48h2v1h-2z M44,48h2v1h-2z M48,48h1v9h-1z M49,48h1v1h-1z M55,48h1v2h-1z M58,48h1v1h-1z M21,49h2v1h-2z M25,49h1v1h-1z M31,49h3v2h-3z M35,49h1v1h-1z M40,49h1v1h-1z M45,49h2v1h-2z M53,49h2v4h-2z M56,49h1v8h-1z M60,49h1v1h-1z M22,50h2v1h-2z M26,50h2v1h-2z M29,50h2v1h-2z M37,50h3v1h-3z M41,50h1v2h-1z M45,50h1v1h-1z M47,50h1v1h-1z M59,50h1v1h-1z M22,51h1v1h-1z M27,51h2v2h-2z M30,51h1v1h-1z M32,51h2v1h-2z M35,51h1v1h-1z M39,51h1v3h-1z M40,51h1v1h-1z M52,51h1v7h-1z M55,51h1v2h-1z M57,51h1v3h-1z M23,52h2v1h-2z M26,52h1v1h-1z M33,52h1v2h-1z M36,52h2v2h-2z M42,52h1v2h-1z M44,52h3v1h-3z M58,52h1v1h-1z M28,53h2v1h-2z M32,53h1v1h-1z M34,53h1v1h-1z M38,53h1v1h-1z M40,53h2v1h-2z M43,53h1v1h-1z M45,53h1v2h-1z M51,53h1v3h-1z M60,53h1v1h-1z M20,54h7v1h-7z M30,54h1v1h-1z M37,54h1v2h-1z M41,54h1v6h-1z M47,54h1v1h-1z M54,54h1v1h-1z M58,54h2v1h-2z M20,55h1v6h-1z M26,55h1v6h-1z M28,55h1v4h-1z M31,55h1v2h-1z M35,55h2v2h-2z M38,55h1v1h-1z M40,55h1v2h-1z M42,55h1v1h-1z M59,55h1v1h-1z M22,56h3v3h-3z M34,56h1v1h-1z M44,56h2v2h-2z M46,56h1v1h-1z M53,56h1v4h-1z M54,56h2v1h-2z M57,56h2v2h-2z M60,56h1v2h-1z M36,57h4v1h-4z M42,57h1v4h-1z M43,57h1v1h-1z M55,57h1v2h-1z M59,57h1v1h-1z M30,58h2v1h-2z M34,58h1v1h-1z M36,58h1v1h-1z M47,58h5v1h-5z M54,58h1v1h-1z M56,58h2v2h-2z M29,59h2v1h-2z M35,59h1v1h-1z M37,59h4v1h-4z M43,59h1v1h-1z M47,59h2v1h-2z M52,59h1v1h-1z M59,59h1v1h-1z M21,60h5v1h-5z M28,60h1v1h-1z M31,60h2v1h-2z M37,60h1v1h-1z M39,60h2v1h-2z M44,60h2v1h-2z M47,60h1v1h-1z M49,60h1v1h-1z M51,60h1v1h-1z M54,60h3v1h-3z M58,60h1v1h-1z" fill="#000000"/>
</svg>
