<?xml version="1.0" encoding="UTF-8"?>
<!DOCTYPE svg PUBLIC "-//W3C//DTD SVG 1.1//EN" "http://www.w3.org/Graphics/SVG/1.1/DTD/svg11.dtd">
<svg xmlns="http://www.w3.org/2000/svg" version="1.1" viewBox="0 0 73 73" stroke="none">
	<rect width="100%" height="100%" fill="#ffffff"/>
	<path d="M20,20h7v1h-7z M30,20h5v1h-5z M36,20h1v1h-1z M39,20h1v1h-1z M41,20h2v3h-2z M43,20h2v1h-2z M46,20h7v1h-7z M20,21h1v6h-1z M26,21h1v6h-1z M30,21h1v2h-1z M32,21h4v1h-4z M37,21h2v1h-2z M44,21h1v1h-1z M46,21h1v6h-1z M52,21h1v6h-1z M22,22h3v3h-3z M28,22h1v6h-1z M31,22h3v1h-3z M35,22h1v4h-1z M38,22h3v1h-3z M43,22h1v3h-1z M48,22h3v3h-3z M32,23h1v2h-1z M34,23h1v1h-1z M36,23h2v1h-2z M40,23h1v2h-1z M44,23h1v1h-1z M30,24h1v3h-1z M38,24h2v1h-2z M41,24h2v1h-2z M29,25h1v1h-1z M31,25h1v1h-1z M33,25h1v1h-1z M36,25h1v2h-1z M41,25h1v1h-1z M21,26h5v1h-5z M32,26h1v1h-1z M34,26h1v1h-1z M38,26h1v4h-1z M40,26h1v1h-1z M42,26h1v1h-1z M44,26h1v1h-1z M47,26h5v1h-5z M29,27h1v1h-1z M35,27h1v2h-1z M41,27h1v1h-1z M20,28h1v1h-1z M22,28h5v1h-5z M30,28h1v4h-1z M32,28h3v1h-3z M36,28h2v3h-2z M40,28h1v1h-1z M43,28h2v2h-2z M46,28h5v1h-5z M23,29h3v1h-3z M29,29h1v3h-1z M39,29h1v1h-1z M45,29h2v2h-2z M47,29h1v1h-1z M49,29h2v1h-2z M52,29h1v1h-1z M20,30h2v2h-2z M26,30h3v1h-3z M32,30h1v3h-1z M35,30h1v1h-1z M41,30h2v2h-2z M44,30h1v3h-1z M48,30h1v3h-1z M50,30h2v2h-2z M22,31h1v2h-1z M27,31h2v1h-2z M31,31h1v1h-1z M34,31h1v1h-1z M36,31h1v1h-1z M39,31h1v1h-1z M45,31h1v2h-1z M49,31h1v2h-1z M23,32h2v1h-2z M26,32h1v1h-1z M37,32h1v3h-1z M40,32h1v5h-1z M42,32h1v3h-1z M47,32h1v1h-1z M51,32h1v3h-1z M20,33h1v4h-1z M28,33h1v4h-1z M30,33h2v1h-2z M34,33h3v1h-3z M38,33h2v1h-2z M43,33h1v1h-1z M46,33h1v1h-1z M50,33h1v1h-1z M52,33h1v1h-1z M22,34h2v1h-2z M25,34h2v1h-2z M29,34h1v2h-1z M31,34h1v1h-1z M33,34h2v1h-2z M47,34h1v1h-1z M49,34h1v4h-1z M22,35h1v1h-1z M25,35h1v1h-1z M27,35h1v1h-1z M36,35h1v5h-1z M39,35h1v3h-1z M41,35h1v1h-1z M44,35h2v1h-2z M50,35h1v1h-1z M21,36h1v3h-1z M26,36h1v1h-1z M32,36h1v5h-1z M34,36h1v2h-1z M37,36h1v3h-1z M47,36h2v1h-2z M52,36h1v2h-1z M24,37h1v1h-1z M27,37h1v1h-1z M30,37h1v3h-1z M33,37h1v4h-1z M35,37h1v8h-1z M41,37h7v1h-7z M50,37h1v3h-1z M23,38h1v2h-1z M26,38h1v1h-1z M28,38h1v1h-1z M31,38h1v4h-1z M38,38h1v2h-1z M40,38h1v1h-1z M42,38h1v1h-1z M44,38h3v1h-3z M48,38h1v3h-1z M51,38h1v1h-1z M27,39h1v1h-1z M41,39h1v1h-1z M43,39h1v3h-1z M49,39h1v3h-1z M52,39h1v3h-1z M22,40h1v3h-1z M26,40h1v1h-1z M29,40h1v4h-1z M34,40h1v4h-1z M37,40h1v1h-1z M40,40h1v5h-1z M42,40h1v1h-1z M44,40h1v1h-1z M20,41h1v4h-1z M27,41h2v1h-2z M38,41h1v1h-1z M41,41h1v3h-1z M45,41h2v1h-2z M50,41h1v3h-1z M24,42h1v2h-1z M26,42h2v1h-2z M30,42h1v1h-1z M37,42h1v1h-1z M47,42h1v3h-1z M51,42h1v1h-1z M23,43h1v2h-1z M25,43h1v2h-1z M31,43h1v2h-1z M36,43h1v4h-1z M38,43h1v1h-1z M42,43h2v1h-2z M46,43h1v2h-1z M48,43h1v7h-1z M52,43h1v3h-1z M26,44h1v1h-1z M32,44h2v1h-2z M37,44h1v1h-1z M44,44h1v5h-1z M45,44h1v1h-1z M28,45h3v1h-3z M32,45h1v1h-1z M38,45h2v1h-2z M42,45h1v1h-1z M50,45h1v3h-1z M20,46h7v1h-7z M34,46h1v4h-1z M35,46h1v1h-1z M40,46h1v5h-1z M41,46h1v2h-1z M43,46h1v1h-1z M46,46h1v1h-1z M51,46h1v4h-1z M20,47h1v6h-1z M26,47h1v6h-1z M28,47h1v4h-1z M30,47h1v1h-1z M42,47h1v3h-1z M52,47h1v3h-1z M22,48h3v3h-3z M31,48h2v2h-2z M35,48h3v1h-3z M45,48h3v1h-3z M49,48h1v2h-1z M29,49h1v1h-1z M36,49h4v1h-4z M43,49h1v2h-1z M47,49h1v4h-1z M32,50h1v1h-1z M35,50h2v1h-2z M38,50h1v1h-1z M44,50h3v1h-3z M29,51h1v2h-1z M31,51h1v2h-1z M33,51h2v2h-2z M39,51h1v1h-1z M41,51h1v1h-1z M45,51h2v2h-2z M48,51h3v1h-3z M21,52h5v1h-5z M28,52h1v1h-1z M30,52h1v1h-1z M32,52h1v1h-1z M35,52h3v1h-3z M40,52h1v1h-1z M43,52h2v1h-2z M48,52h1v1h-1z M51,52h1v1h-1z" fill="#000000"/>
</svg>
